<?xml version="1.0" encoding="utf-8"?>
<!-- Generator: Adobe Illustrator 14.0.0, SVG Export Plug-In . SVG Version: 6.00 Build 43363)  -->
<!DOCTYPE svg PUBLIC "-//W3C//DTD SVG 1.1//EN" "http://www.w3.org/Graphics/SVG/1.1/DTD/svg11.dtd">
<svg version="1.1" id="Warstwa_1" xmlns="http://www.w3.org/2000/svg" xmlns:xlink="http://www.w3.org/1999/xlink" x="0px" y="0px"
	 width="425.196px" height="425.196px" viewBox="212.598 -37.795 425.196 425.196"
	 enable-background="new 212.598 -37.795 425.196 425.196" xml:space="preserve">
<title>Obszar roboczy 1</title>
<path d="M273.996,100.969h0.48c4.477-0.215,8.361-3.158,9.779-7.41c1.807-5.615-1.282-11.631-6.896-13.437
	c-5.615-1.806-11.632,1.282-13.438,6.896c-1.806,5.615,1.282,11.632,6.897,13.438c1.065,0.343,2.178,0.516,3.297,0.513H273.996z"/>
<path d="M604.987,187.789h-33.99c5.948-25.847,5.434-52.761-1.5-78.36c-1.433-5.293-6.886-8.423-12.18-6.99
	c-5.294,1.434-8.423,6.887-6.99,12.181l0,0c6.467,23.949,6.56,49.173,0.271,73.17h-7.591c-4.988,0.015-9.052,4.012-9.149,9v3.239
	h-45.3c-6.706-0.009-13.264,1.976-18.84,5.7l-47.221,31.5h-48.541c-16.071-0.032-29.127,12.969-29.159,29.041
	c-0.002,0.78,0.028,1.561,0.089,2.339l-22.77-7.109c-0.531-1.358-1.362-2.578-2.43-3.57l-1.801-1.62c-0.51-0.479-1.05-0.93-1.5-1.38
	c-28.543-26.747-44.745-64.113-44.76-103.229c0.013-8.043,0.695-16.07,2.04-24c0.202-5.48-4.076-10.088-9.557-10.29
	c-4.487-0.165-8.526,2.7-9.854,6.99c-1.524,9.02-2.297,18.151-2.31,27.3c-0.039,35.596,11.7,70.204,33.39,98.43l-12-3.75
	c-5.924-2.19-12.425-2.254-18.39-0.18c-11.149,3.516-18.72,13.869-18.69,25.56c-0.029,10.893,6.49,20.736,16.53,24.96l135.18,57.18
	c11.082,4.701,23.003,7.1,35.041,7.051h1.561c9.709,0.008,19.354-1.563,28.56-4.65l80.73-28.68v5.67
	c0.017,5.046,4.104,9.133,9.149,9.149h61.98c5.047-0.017,9.134-4.104,9.15-9.149V196.939
	C614.121,191.893,610.034,187.805,604.987,187.789z M595.987,206.089v118.05h-43.83v-118.05H595.987z M369.366,298.249l1.2,0.3
	c1.664,0.302,3.349,0.473,5.04,0.51h96v-18.3h-95.941c-0.951-0.05-1.896-0.19-2.82-0.42c-0.278-0.076-0.549-0.176-0.81-0.3
	c-0.46-0.165-0.911-0.355-1.35-0.57l-0.511-0.3c-0.195-0.082-0.378-0.193-0.54-0.33c-0.547-0.348-1.042-0.772-1.47-1.26l-0.54-0.45
	c-0.679-0.714-1.236-1.535-1.649-2.43l-1.681-3.33c-2.7-5.374-0.533-11.92,4.84-14.621c1.496-0.752,3.146-1.148,4.82-1.159h51.3
	c1.787-0.022,3.532-0.542,5.04-1.5l49.5-33c2.568-1.71,5.586-2.618,8.671-2.61h45.39v89.7l-86.7,30.84
	c-7.284,2.424-14.913,3.649-22.59,3.63h-1.561c-9.538-0.025-18.974-1.964-27.75-5.699l-135.24-57
	c-3.228-1.387-5.326-4.557-5.34-8.07c0.076-3.89,2.642-7.29,6.36-8.43c0.859-0.293,1.763-0.436,2.67-0.421
	c1.239,0.009,2.468,0.232,3.63,0.66l88.71,27.721c2.447,2.268,5.282,4.076,8.37,5.34c0.24,0,0.42,0.18,0.42,0l0.33,0.149
	C366.536,297.438,367.939,297.889,369.366,298.249z"/>
<path d="M491.437,94.369c0.359,0.029,0.721,0.029,1.08,0c2.376,0.024,4.661-0.917,6.33-2.61l21-21
	c-8.001,9.873-6.483,24.363,3.39,32.364s24.363,6.483,32.364-3.39s6.483-24.363-3.391-32.364c-8.445-6.844-20.528-6.844-28.974,0
	l45-45c3.157-3.041,3.78-7.866,1.5-11.61c-2.702-4.172-8.274-5.364-12.446-2.662c-0.532,0.345-1.025,0.744-1.474,1.192l-18.21,18.21
	c3.166-4.168,4.884-9.256,4.89-14.49c0.046-13.403-10.783-24.307-24.188-24.353c-13.403-0.045-24.307,10.783-24.352,24.188
	c-0.046,13.404,10.783,24.307,24.187,24.353c5.287,0.018,10.436-1.691,14.663-4.867l-46.44,46.62c-3.076,2.983-3.697,7.69-1.5,11.37
	C486.315,92.61,488.74,94.105,491.437,94.369z M530.257,85.369c-0.016-4.076,3.274-7.394,7.351-7.41
	c4.075-0.017,7.394,3.274,7.41,7.35c0.017,4.076-3.274,7.394-7.351,7.41c-0.01,0-0.02,0-0.029,0
	c-4.076,0.001-7.381-3.304-7.381-7.379c0-0.03,0-0.061,0-0.091V85.369z M526.297,13.369c-0.132,4.438-3.838,7.929-8.276,7.796
	c-4.438-0.132-7.929-3.838-7.796-8.276c0.13-4.344,3.688-7.798,8.032-7.8c4.44,0,8.04,3.6,8.04,8.04V13.369z"/>
<path d="M287.947,69.949c1.111,0.545,2.332,0.832,3.569,0.84h0.9l49.44-5.4c4.382-0.505,7.525-4.468,7.02-8.85
	c-0.505-4.383-4.468-7.525-8.85-7.021l-27.78,3c7.638-7.811,16.166-14.698,25.41-20.52c38.654-24.336,86.646-28.621,129-11.521
	c4.981,2.294,10.879,0.115,13.173-4.866s0.115-10.879-4.866-13.173c-0.283-0.13-0.572-0.247-0.866-0.351
	c-48.262-19.5-102.953-14.622-147.001,13.11c-10.319,6.487-19.854,14.148-28.409,22.83v-25.41c-0.271-4.416-4.07-7.775-8.485-7.505
	c-4.038,0.247-7.258,3.467-7.505,7.505v49.74C282.666,65.744,284.768,68.782,287.947,69.949z"/>
<path d="M360.576,196.789c2.144,1.166,4.55,1.766,6.99,1.739c2.431,0.03,4.828-0.569,6.96-1.739c2.506-1.213,4.092-3.757,4.08-6.54
	V89.389c0.052-2.681-1.379-5.173-3.721-6.479c-1.932-1.185-4.154-1.808-6.42-1.8c-1.228-0.023-2.446,0.223-3.569,0.72
	c-0.96,0.431-1.834,1.03-2.58,1.77l-15.75,15c-1.235,0.959-2.257,2.165-3,3.54c-0.849,1.501-1.293,3.196-1.29,4.92
	c-0.003,2.254,0.735,4.446,2.1,6.24c1.446,2.063,3.812,3.284,6.33,3.271c0.978-0.004,1.942-0.229,2.82-0.66
	c0.881-0.4,1.699-0.926,2.43-1.561l0.48-0.51v76.41C356.443,193.044,358.052,195.588,360.576,196.789z"/>
<path d="M445.297,84.949c-5.906-2.431-12.243-3.645-18.63-3.57c-6.383-0.103-12.717,1.123-18.6,3.6
	c-5.684,2.453-10.435,6.657-13.561,12c-3.526,6.539-5.227,13.907-4.92,21.33v44.221c-0.319,7.452,1.38,14.854,4.92,21.42
	c3.149,5.346,7.92,9.549,13.621,12c11.946,4.801,25.284,4.801,37.23,0c5.709-2.449,10.489-6.652,13.649-12
	c3.513-6.544,5.201-13.91,4.891-21.33v-44.431c0.295-7.389-1.394-14.723-4.891-21.239C455.826,91.596,451.025,87.393,445.297,84.949
	z M441.846,118.309v44.221c0.417,4.601-0.995,9.182-3.93,12.749c-3.046,2.808-7.118,4.23-11.25,3.931
	c-4.091,0.303-8.123-1.11-11.13-3.9c-2.9-3.596-4.288-8.179-3.87-12.779v-44.341c-0.422-4.601,0.967-9.186,3.87-12.779
	c3.002-2.801,7.035-4.226,11.13-3.931c4.132-0.299,8.204,1.123,11.25,3.931c2.939,3.577,4.352,8.169,3.93,12.779V118.309z"/>
</svg>
