<?xml version="1.0" encoding="utf-8"?>
<!-- Generator: Adobe Illustrator 14.0.0, SVG Export Plug-In . SVG Version: 6.00 Build 43363)  -->
<!DOCTYPE svg PUBLIC "-//W3C//DTD SVG 1.1//EN" "http://www.w3.org/Graphics/SVG/1.1/DTD/svg11.dtd">
<svg version="1.1" id="Warstwa_1" xmlns="http://www.w3.org/2000/svg" xmlns:xlink="http://www.w3.org/1999/xlink" x="0px" y="0px"
	 width="425.196px" height="281px" viewBox="212.598 35.5 425.196 281" enable-background="new 212.598 35.5 425.196 281"
	 xml:space="preserve">
<title>Obszar roboczy 3</title>
<path d="M322.435,242.095h-15.071v-8.812c-0.215-4.145-3.75-7.33-7.895-7.115c-3.844,0.2-6.916,3.271-7.115,7.115v16.327
	c0.022,4.13,3.365,7.473,7.495,7.495h22.586c4.145-0.215,7.331-3.75,7.116-7.895C329.351,245.366,326.278,242.295,322.435,242.095
	L322.435,242.095z"/>
<path d="M372.489,232.879c-8.996,0-17.626,3.561-24.003,9.906c-13.174,12.866-13.422,33.976-0.555,47.149
	c0.183,0.187,0.367,0.371,0.555,0.554c6.383,6.335,15.01,9.896,24.003,9.906c18.644-0.457,33.388-15.941,32.931-34.584
	C404.978,247.808,390.49,233.319,372.489,232.879z M372.489,285.383c-10.359,0-18.757-8.398-18.757-18.757
	s8.398-18.757,18.757-18.757l0,0c10.36,0,18.758,8.398,18.758,18.757S382.849,285.383,372.489,285.383z"/>
<path d="M564.38,120.415c-1.35-1.301-3.15-2.027-5.024-2.026h-38.486c-4.136,0.011-7.485,3.36-7.495,7.495v61.518
	c0.01,4.136,3.359,7.485,7.495,7.496h61.072c4.143,0,7.506-3.353,7.515-7.496v-41.099c-0.006-2.12-0.911-4.138-2.49-5.551
	L564.38,120.415z M574.507,179.989h-46.042v-46.59h28.056l18.007,16.205L574.507,179.989z"/>
<path d="M620.125,129.935l-53.72-44.564c-1.342-1.131-3.046-1.743-4.802-1.722h-63.159V56.708c-0.021-4.129-3.364-7.473-7.495-7.495
	h-191.1c-4.13,0.022-7.472,3.365-7.495,7.495v40.655c-0.216,4.145,2.97,7.68,7.115,7.895c4.144,0.215,7.68-2.97,7.895-7.115
	c0.014-0.26,0.014-0.521,0-0.78v-33.14h176.233v177.872h-61.602c-4.145-0.215-7.68,2.971-7.894,7.115
	c-0.218,4.146,2.97,7.68,7.113,7.895c0.26,0.013,0.521,0.013,0.78,0h91.601c4.145-0.215,7.33-3.75,7.115-7.895
	c-0.2-3.844-3.272-6.916-7.115-7.115h-15.071V98.719h60.467l48.918,40.514l-0.444,102.721h-7.8c-4.146-0.215-7.68,2.971-7.896,7.115
	c-0.215,4.145,2.971,7.679,7.115,7.896c0.261,0.013,0.521,0.013,0.78,0h15.214c4.127,0.022,7.491-3.307,7.514-7.435l0,0
	l0.588-113.74C622.924,133.516,621.882,131.38,620.125,129.935z"/>
<path d="M555.689,232.879c-8.998-0.007-17.63,3.555-24.004,9.906c-13.173,12.818-13.46,33.889-0.642,47.063
	c0.211,0.216,0.425,0.43,0.642,0.641c6.382,6.337,15.01,9.897,24.004,9.906c18.644-0.457,33.388-15.941,32.932-34.584
	C588.178,247.808,573.691,233.319,555.689,232.879z M555.689,285.383c-10.359,0-18.757-8.398-18.757-18.757
	s8.397-18.757,18.757-18.757l0,0c10.359,0,18.758,8.398,18.758,18.757S566.049,285.383,555.689,285.383z"/>
<path d="M234.38,207.011h128.812c3.849,0,6.968,3.12,6.968,6.968v0.081c0,3.849-3.12,6.969-6.968,6.969H234.38
	c-3.848,0-6.968-3.12-6.968-6.969v-0.081C227.412,210.131,230.531,207.011,234.38,207.011z"/>
<path d="M255.467,184.526h106.529c3.849,0,6.968,3.12,6.968,6.968v0.082c0,3.848-3.119,6.968-6.968,6.968H255.467
	c-3.849,0-6.969-3.12-6.969-6.968v-0.082C248.498,187.646,251.618,184.526,255.467,184.526z"/>
<path d="M295.149,161.698h66.158c3.849,0,6.969,3.119,6.969,6.969v0.08c0,3.85-3.12,6.969-6.969,6.969h-66.158
	c-3.848,0-6.967-3.119-6.967-6.969v-0.08C288.182,164.817,291.301,161.698,295.149,161.698z"/>
<path d="M345.203,100.624L345.203,100.624c0.235,0.031,0.474,0.031,0.709,0c0.451-0.101,0.864-0.325,1.194-0.648
	c0.169-0.179,0.318-0.376,0.446-0.587c0.3-0.479,0.512-1.007,0.628-1.56c0.142-0.563,0.21-1.142,0.203-1.722
	c0.002-1.031-0.249-2.046-0.729-2.958c-0.465-0.901-1.418-1.442-2.431-1.378h-27.063c-1.061-0.007-2.104,0.273-3.018,0.811
	c-0.219,0.125-0.423,0.275-0.608,0.446c-0.542,0.53-0.831,1.268-0.79,2.026v50.176c0.01,1.039,0.64,1.972,1.6,2.37
	c2.183,1.079,4.744,1.079,6.927,0c0.968-0.389,1.601-1.327,1.601-2.37v-21.208h11.85c0.952,0.03,1.843-0.459,2.33-1.277
	c0.237-0.407,0.42-0.842,0.547-1.296c0.12-0.421,0.181-0.857,0.182-1.296l0,0c0.022-1.006-0.26-1.995-0.811-2.836
	c-0.131-0.189-0.281-0.365-0.445-0.527c-0.571-0.463-1.292-0.701-2.026-0.668h-11.627v-15.496H345.203z"/>
<path d="M389.95,105.06c-0.183-2.424-0.985-4.762-2.33-6.786c-1.615-2.325-3.928-4.077-6.604-5.003
	c-2.977-1.027-6.107-1.541-9.257-1.519h-15.334c-1.721-0.079-3.179,1.252-3.258,2.973c-0.002,0.062-0.004,0.124-0.003,0.186v50.257
	c-0.038,0.778,0.292,1.528,0.891,2.025c0.214,0.187,0.453,0.344,0.709,0.466c0.523,0.261,1.073,0.465,1.641,0.608
	c0.624,0.147,1.264,0.215,1.903,0.202l0,0c1.211,0.021,2.408-0.257,3.485-0.81c0.953-0.429,1.559-1.385,1.54-2.43v-20.196h6.502
	l10.897,21.411c0.33,0.725,0.856,1.343,1.52,1.782c0.602,0.396,1.306,0.608,2.026,0.607c1.041-0.005,2.064-0.27,2.978-0.77
	c0.925-0.498,1.734-1.189,2.37-2.026c0.583-0.701,0.911-1.58,0.932-2.491c0.024-0.188,0.024-0.379,0-0.567
	c-0.05-0.23-0.124-0.455-0.223-0.668l-10.128-18.818c1.91-0.585,3.686-1.542,5.226-2.815c1.585-1.372,2.821-3.101,3.606-5.043
	c0.455-1.114,0.781-2.276,0.972-3.465c0.121-0.648,0.203-1.316,0.263-2.025c0.061-0.708,0-1.397,0-2.147l0,0
	C390.22,107.013,390.112,106.032,389.95,105.06z M363.231,100.624h8.528c2.177-0.123,4.329,0.521,6.077,1.823
	c1.199,1.137,1.922,2.685,2.025,4.334c0.088,0.672,0.136,1.348,0.142,2.026c-0.005,0.677-0.052,1.354-0.142,2.026
	c-0.122,1.626-0.843,3.149-2.025,4.274c-1.739,1.323-3.894,1.984-6.077,1.863h-8.528V100.624z"/>
<path d="M429.207,100.624c0.974,0.037,1.888-0.471,2.37-1.317c0.567-0.954,0.847-2.05,0.811-3.16
	c0.002-1.03-0.249-2.046-0.729-2.957c-0.457-0.925-1.42-1.489-2.451-1.438h-27.65c-1.06-0.008-2.103,0.272-3.018,0.811
	c-0.886,0.479-1.421,1.423-1.377,2.43v50.176c-0.044,1.007,0.491,1.951,1.377,2.431c0.915,0.537,1.958,0.818,3.018,0.81h27.65
	c0.758,0.035,1.493-0.251,2.026-0.79c0.174-0.178,0.316-0.383,0.425-0.607c0.48-0.905,0.731-1.913,0.729-2.938
	c0.034-1.115-0.247-2.217-0.811-3.181c-0.485-0.842-1.397-1.349-2.37-1.316h-21.999v-15.557h11.871
	c0.506,0.017,1.008-0.095,1.46-0.325c0.411-0.212,0.75-0.544,0.972-0.952c0.236-0.407,0.419-0.842,0.547-1.296
	c0.119-0.421,0.182-0.857,0.182-1.296l0,0c0.008-0.514-0.061-1.025-0.202-1.52c-0.122-0.472-0.327-0.918-0.608-1.317
	c-0.504-0.806-1.398-1.285-2.35-1.255h-11.871v-15.436H429.207z"/>
<path d="M470.166,100.624c0.975,0.037,1.887-0.471,2.371-1.317c0.565-0.954,0.847-2.05,0.81-3.16
	c0.002-1.03-0.248-2.046-0.729-2.957c-0.468-0.908-1.433-1.45-2.451-1.377h-27.549c-1.067-0.01-2.116,0.27-3.037,0.811
	c-0.881,0.486-1.413,1.426-1.379,2.43v50.115c-0.034,1.004,0.498,1.943,1.379,2.431c0.921,0.54,1.97,0.82,3.037,0.81h27.549
	c0.759,0.043,1.498-0.245,2.025-0.79c0.175-0.178,0.318-0.383,0.426-0.607c0.481-0.905,0.731-1.913,0.729-2.938
	c0.034-1.115-0.246-2.217-0.81-3.181c-0.486-0.842-1.397-1.349-2.371-1.316h-21.896v-15.557h11.769
	c0.506,0.017,1.009-0.095,1.459-0.325c0.412-0.212,0.751-0.544,0.973-0.952c0.236-0.407,0.421-0.842,0.546-1.296
	c0.12-0.421,0.182-0.857,0.183-1.296l0,0c0.007-0.514-0.061-1.025-0.203-1.52c-0.121-0.472-0.327-0.918-0.606-1.317
	c-0.519-0.783-1.412-1.237-2.351-1.195h-11.769v-15.496H470.166z"/>
<path d="M272.908,174.803c1.85-0.001,3.625-0.729,4.942-2.026c2.725-2.748,2.725-7.178,0-9.925c-2.718-2.724-7.13-2.729-9.854-0.011
	c-0.003,0.003-0.007,0.007-0.01,0.011c-2.724,2.748-2.724,7.177,0,9.925C269.297,174.072,271.065,174.8,272.908,174.803z"/>
</svg>
