<?xml version="1.0" encoding="utf-8"?>
<!-- Generator: Adobe Illustrator 14.0.0, SVG Export Plug-In . SVG Version: 6.00 Build 43363)  -->
<!DOCTYPE svg PUBLIC "-//W3C//DTD SVG 1.1//EN" "http://www.w3.org/Graphics/SVG/1.1/DTD/svg11.dtd">
<svg version="1.1" id="Warstwa_1" xmlns="http://www.w3.org/2000/svg" xmlns:xlink="http://www.w3.org/1999/xlink" x="0px" y="0px"
	 width="425.196px" height="425.197px" viewBox="212.598 -37.795 425.196 425.197"
	 enable-background="new 212.598 -37.795 425.196 425.197" xml:space="preserve">
<title>Obszar roboczy 4</title>
<path d="M557.862,121.599c-0.033-73.268-59.393-132.668-132.66-132.75c-30.001-0.111-59.137,10.052-82.56,28.8
	c-4.178,3.604-4.644,9.912-1.04,14.09c3.4,3.941,9.257,4.612,13.46,1.54c19.895-15.938,44.649-24.577,70.14-24.479
	C487.401,8.85,537.78,59.314,537.729,121.512c-0.052,62.198-50.516,112.578-112.714,112.526
	c-62.199-0.052-112.579-50.515-112.527-112.713c0.012-14.556,2.846-28.97,8.343-42.447c2.275-5.026,0.045-10.945-4.982-13.22
	c-5.026-2.275-10.945-0.044-13.22,4.982c-0.101,0.223-0.193,0.448-0.277,0.678c-25.658,63.043,0.498,135.278,60.57,167.28
	c0,0.42-0.21,0.84-0.271,1.289l-11.16,95.61c-1.104,8.11,2.747,16.094,9.78,20.28c6.151,3.574,13.857,3.052,19.47-1.32l47.851-36.21
	c0.27-0.18,0.479-0.3,0.899,0l45,38.19c3.214,2.748,7.292,4.277,11.521,4.319c2.891-0.009,5.734-0.729,8.28-2.1
	c7.305-4.044,11.378-12.156,10.26-20.43l-10.95-98.7c-0.148-1.335-0.622-2.612-1.38-3.72
	C532.785,212.05,557.753,168.607,557.862,121.599z M487.692,340.269c0.28,1.31-0.236,2.661-1.319,3.449c-0.24,0-0.301,0-0.69-0.18
	l-45-38.189c-6.334-5.537-15.689-5.85-22.38-0.75l-48,36.21c-0.391,0.27-0.42,0.239-0.66,0c-1.072-0.796-1.577-2.146-1.29-3.45
	l10.68-91.56c31.699,11.739,66.684,10.924,97.801-2.279L487.692,340.269z"/>
<path d="M409.062,159.159c0.739,0.574,1.558,1.039,2.43,1.38c0.328,0.161,0.669,0.292,1.021,0.391h0.359
	c3.639,1.098,7.586,0.119,10.29-2.551l69.811-69.779c4.021-4.028,4.021-10.552,0-14.58l-0.24-0.21
	c-4.028-4.021-10.552-4.021-14.58,0l-63.21,63.24l-39-31.261c-4.478-3.51-10.944-2.775-14.52,1.65l-0.181,0.24
	c-3.548,4.45-2.823,10.933,1.62,14.489L409.062,159.159z"/>
<path d="M325.512,59.019h0.479c5.4-0.133,9.67-4.617,9.537-10.018c-0.133-5.399-4.617-9.669-10.017-9.537
	c-5.4,0.133-9.67,4.618-9.537,10.018C316.103,54.695,320.298,58.891,325.512,59.019z"/>
</svg>
