<?xml version="1.0" encoding="utf-8"?>
<!-- Generator: Adobe Illustrator 14.0.0, SVG Export Plug-In . SVG Version: 6.00 Build 43363)  -->
<!DOCTYPE svg PUBLIC "-//W3C//DTD SVG 1.1//EN" "http://www.w3.org/Graphics/SVG/1.1/DTD/svg11.dtd">
<svg version="1.1" id="Warstwa_1" xmlns="http://www.w3.org/2000/svg" xmlns:xlink="http://www.w3.org/1999/xlink" x="0px" y="0px"
	 width="425.196px" height="425.196px" viewBox="212.598 -37.795 425.196 425.196"
	 enable-background="new 212.598 -37.795 425.196 425.196" xml:space="preserve">
<title>Obszar roboczy 2</title>
<path d="M425.167,118.21c2.675-0.015,5.234-1.094,7.11-3l0,0c3.937-3.946,3.937-10.334,0-14.28c-3.996-3.757-10.225-3.757-14.22,0
	c-1.9,1.893-2.978,4.458-3,7.14C415.057,113.658,419.579,118.193,425.167,118.21z"/>
<path d="M382.807,306.43L382.807,306.43c-5.584,0.033-10.083,4.586-10.05,10.17c0.033,5.583,4.586,10.083,10.17,10.05
	c5.56-0.033,10.05-4.55,10.05-10.11c0-5.583-4.525-10.11-10.109-10.11c-0.05,0-0.101,0-0.151,0.001H382.807z"/>
<path d="M586.057,17.8h-21.45v-1.32c0-14.994-12.155-27.149-27.149-27.149c-14.995,0-27.15,12.155-27.15,27.149v1.32h-58.141v-1.32
	c0.008-14.994-12.143-27.155-27.138-27.162c-14.994-0.007-27.156,12.143-27.163,27.138c0,0.008,0,0.017,0,0.024v1.32h-58.02v-1.32
	c0.498-15.003-11.26-27.569-26.263-28.067c-15.003-0.499-27.569,11.259-28.067,26.262c-0.021,0.602-0.021,1.204,0,1.806v1.32h-21.24
	c-13.447,0.05-24.316,10.973-24.3,24.42v294.6c-0.017,13.442,10.857,24.357,24.3,24.391h264.541c2.678-0.001,5.241-1.083,7.11-3
	l71.489-71.791c1.908-1.888,2.988-4.457,3-7.141v-237c0.05-13.47-10.829-24.43-24.299-24.479
	C586.097,17.8,586.077,17.8,586.057,17.8z M260.166,326.65h94.17c5.584,0,10.11-4.526,10.11-10.11
	c0-5.583-4.526-10.109-10.11-10.109h-94.17V119.139l0,0v-76.92c0-2.308,1.862-4.184,4.17-4.2h21.24v13.5
	c-0.499,15.003,11.26,27.569,26.263,28.068c15.002,0.498,27.568-11.26,28.067-26.263c0.021-0.602,0.021-1.204,0-1.806v-13.5h58.021
	v13.5c-0.008,14.995,12.143,27.155,27.137,27.163c14.995,0.007,27.156-12.144,27.163-27.138c0-0.009,0-0.017,0-0.025v-13.5h58.08
	v13.5c0,14.995,12.155,27.15,27.15,27.15c14.994,0,27.149-12.155,27.149-27.15v-13.5h21.45c2.308,0.017,4.17,1.893,4.17,4.2v55.68
	h-129.39c-5.576,0.305-9.849,5.07-9.545,10.646c0.28,5.15,4.394,9.264,9.545,9.545h129.329v151.109h-47.13
	c-13.446,0.05-24.316,10.974-24.3,24.42v47.371h-254.46c-2.279-0.032-4.11-1.89-4.11-4.17V326.65z M544.537,51.519
	c0.254,3.869-2.677,7.211-6.546,7.464s-7.21-2.678-7.464-6.546c-0.02-0.306-0.02-0.612,0-0.918v-35.04
	c-0.253-3.868,2.678-7.21,6.547-7.464c3.868-0.253,7.21,2.678,7.463,6.547c0.021,0.306,0.021,0.611,0,0.917V51.519z M418.117,51.519
	v-35.04c0-3.877,3.143-7.02,7.021-7.02c3.877,0,7.02,3.143,7.02,7.02l0,0v35.04c0,3.877-3.143,7.021-7.02,7.021
	C421.26,58.54,418.117,55.396,418.117,51.519z M305.737,51.519v-35.04c0-3.877,3.143-7.02,7.02-7.02c3.878,0,7.021,3.143,7.021,7.02
	l0,0v35.04c0,3.877-3.143,7.021-7.021,7.021C308.879,58.54,305.737,55.396,305.737,51.519z M576.067,289.42l-37.17,37.291v-33
	c-0.017-2.304,1.837-4.184,4.14-4.2l0,0L576.067,289.42z"/>
<path d="M401.347,265.989c6.198-2.566,11.441-7.003,15-12.689c3.951-6.896,5.865-14.771,5.52-22.71v-3
	c0.332-6.644-1.581-13.206-5.43-18.631c-2.355-2.99-5.231-5.531-8.49-7.5c2.691-2.324,4.868-5.185,6.39-8.399
	c2.731-5.96,4.056-12.467,3.87-19.021c0.309-6.692-1.36-13.329-4.8-19.079c-3.19-4.796-7.824-8.452-13.23-10.44
	c-5.879-2.098-12.09-3.114-18.33-3c-6.137-0.152-12.245,0.865-18,3c-4.512,1.685-8.568,4.396-11.851,7.92
	c-2.714,2.999-4.804,6.507-6.149,10.32c-1.126,3.162-1.733,6.484-1.801,9.84c-0.069,2.033,0.215,4.063,0.841,6
	c0.733,2.063,2.403,3.655,4.5,4.29c2.194,0.615,4.472,0.888,6.75,0.81c3.229,0.346,6.445-0.752,8.79-3
	c1.678-1.968,2.556-4.495,2.46-7.08c0.012-1.444,0.275-2.876,0.779-4.229c0.442-1.195,1.139-2.279,2.04-3.18
	c1.208-1.127,2.653-1.968,4.23-2.46c2.367-0.739,4.841-1.084,7.319-1.021c6.543-1.056,12.703,3.394,13.758,9.937
	c0.229,1.411,0.202,2.852-0.077,4.254c0.201,3.454-0.415,6.908-1.8,10.079c-0.933,1.848-2.53,3.272-4.471,3.99
	c-2.601,0.865-5.329,1.281-8.069,1.23c-2.795-0.191-5.464,1.184-6.931,3.569c-2.34,3.939-2.34,8.842,0,12.78
	c1.48,2.446,4.196,3.868,7.05,3.69c4.527-0.24,9.011,0.991,12.78,3.51c3,2.16,4.38,6,4.38,11.67v3c0,6.36-1.35,10.95-4.05,13.62
	s-7.08,4.05-13.11,4.05c-2.643,0.063-5.278-0.313-7.8-1.11c-1.848-0.544-3.563-1.463-5.04-2.699c-1.242-1.035-2.263-2.311-3-3.75
	c-0.631-1.225-0.96-2.583-0.96-3.96c0.174-2.763-0.932-5.451-3-7.29c-2.634-1.807-5.821-2.624-9-2.311
	c-2.9-0.224-5.793,0.525-8.22,2.13c-2.249,2.146-3.36,5.223-3,8.311c0.099,8.296,3.628,16.181,9.75,21.78
	c3.607,3.351,7.852,5.941,12.48,7.619c5.67,2.007,11.656,2.972,17.67,2.851C388.024,269.792,394.905,268.538,401.347,265.989z"/>
<path d="M430.537,229.779c-0.351,8.048,1.484,16.041,5.311,23.13c3.406,5.796,8.578,10.348,14.76,12.99
	c6.364,2.656,13.204,3.984,20.1,3.9c6.965,0.096,13.876-1.231,20.311-3.9c6.172-2.645,11.335-7.197,14.729-12.99
	c3.838-7.085,5.684-15.079,5.341-23.13v-48.39c0.342-8.061-1.503-16.063-5.341-23.16c-3.41-5.821-8.607-10.388-14.819-13.02
	c-6.408-2.652-13.286-3.979-20.221-3.9c-6.926-0.099-13.798,1.229-20.189,3.9c-6.139,2.673-11.274,7.22-14.67,12.989
	c-3.83,7.099-5.665,15.103-5.311,23.16V229.779z M454.057,229.779v-48.39c0-6.48,1.439-11.25,4.29-14.16
	c3.339-3.1,7.815-4.675,12.36-4.35c4.584-0.315,9.097,1.269,12.479,4.38c3,3,4.38,7.649,4.38,14.13v48.39
	c0,6.45-1.47,11.22-4.38,14.101c-3.383,3.11-7.896,4.694-12.479,4.38c-4.546,0.332-9.025-1.244-12.36-4.351
	C455.497,240.999,454.057,236.26,454.057,229.779L454.057,229.779z"/>
</svg>
